<svg width="38" height="30" viewBox="0 0 38 30" fill="none" xmlns="http://www.w3.org/2000/svg">
<path fill-rule="evenodd" clip-rule="evenodd" d="M17.4337 4.13712C17.9604 3.71403 18.3002 3.05521 18.3002 2.31299C18.3002 1.03549 17.2971 0 16.0594 0C14.8219 0 13.8188 1.03549 13.8188 2.31299C13.8188 3.46259 14.6322 4.4137 15.6969 4.59285L17.7606 13.2445L4.4709 8.32477C4.36387 7.15027 3.40669 6.23083 2.2406 6.23083C1.00308 6.23083 0 7.26656 0 8.54358C0 9.82132 1.00308 10.8566 2.2406 10.8566C2.90479 10.8566 3.49966 10.5565 3.90998 10.0831L17.5965 15.1496L9.79358 24.9574C9.60622 24.9047 9.40996 24.8745 9.20667 24.8745C7.96916 24.8745 6.96607 25.91 6.96607 27.1875C6.96607 28.465 7.96916 29.5005 9.20667 29.5005C10.4444 29.5005 11.4475 28.465 11.4475 27.1875C11.4475 26.8009 11.3543 26.4368 11.192 26.1164L18.9747 16.3324L21.0959 19.7333C20.8624 20.0984 20.7254 20.5357 20.7254 21.0062C20.7254 22.2835 21.7287 23.3192 22.966 23.3192C24.2037 23.3192 25.207 22.2835 25.207 21.0062C25.207 19.7287 24.2037 18.6932 22.966 18.6932C22.8412 18.6932 22.7198 18.7063 22.6004 18.7268L20.6966 15.6747H37.53V13.8243H19.7445L17.4337 4.13712Z" fill="white"/>
</svg>
